<svg xmlns="http://www.w3.org/2000/svg" width="64" height="64" viewBox="0 0 64 64">
  <style>
    rect { fill: white; }
    path { stroke: #111; }
    @media (prefers-color-scheme: dark) {
      rect { fill: #1a1a1a; }
      path { stroke: #eeeeee; }
    }
  </style>
  <rect width="64" height="64" rx="12"/>
  <path
    d="M 10.00 53.89 L 10.44 53.88 L 10.89 53.86 L 11.33 53.84 L 11.78 53.82 L 12.22 53.80 L 12.67 53.78 L 13.11 53.75 L 13.56 53.71 L 14.00 53.68 L 14.44 53.64 L 14.89 53.59 L 15.33 53.54 L 15.78 53.48 L 16.22 53.41 L 16.67 53.34 L 17.11 53.25 L 17.56 53.16 L 18.00 53.05 L 18.44 52.94 L 18.89 52.80 L 19.33 52.65 L 19.78 52.48 L 20.22 52.30 L 20.67 52.09 L 21.11 51.85 L 21.56 51.59 L 22.00 51.30 L 22.44 50.98 L 22.89 50.62 L 23.33 50.22 L 23.78 49.78 L 24.22 49.29 L 24.67 48.76 L 25.11 48.17 L 25.56 47.53 L 26.00 46.83 L 26.44 46.07 L 26.89 45.25 L 27.33 44.37 L 27.78 43.43 L 28.22 42.43 L 28.67 41.36 L 29.11 40.24 L 29.56 39.07 L 30.00 37.86 L 30.44 36.60 L 30.89 35.31 L 31.33 33.99 L 31.78 32.67 L 32.22 31.33 L 32.67 30.01 L 33.11 28.69 L 33.56 27.40 L 34.00 26.14 L 34.44 24.93 L 34.89 23.76 L 35.33 22.64 L 35.78 21.57 L 36.22 20.57 L 36.67 19.63 L 37.11 18.75 L 37.56 17.93 L 38.00 17.17 L 38.44 16.47 L 38.89 15.83 L 39.33 15.24 L 39.78 14.71 L 40.22 14.22 L 40.67 13.78 L 41.11 13.38 L 41.56 13.02 L 42.00 12.70 L 42.44 12.41 L 42.89 12.15 L 43.33 11.91 L 43.78 11.70 L 44.22 11.52 L 44.67 11.35 L 45.11 11.20 L 45.56 11.06 L 46.00 10.95 L 46.44 10.84 L 46.89 10.75 L 47.33 10.66 L 47.78 10.59 L 48.22 10.52 L 48.67 10.46 L 49.11 10.41 L 49.56 10.36 L 50.00 10.32 L 50.44 10.29 L 50.89 10.25 L 51.33 10.22 L 51.78 10.20 L 52.22 10.18 L 52.67 10.16 L 53.11 10.14 L 53.56 10.12 L 54.00 10.11"
    fill="none"
    stroke-width="4"
    stroke-linecap="round"
    stroke-linejoin="round"
  />
</svg>