<svg xmlns="http://www.w3.org/2000/svg" width="32" height="32" viewBox="0 0 32 32">
  <style>
    rect { fill: white; }
    path { stroke: #111; }
    @media (prefers-color-scheme: dark) {
      rect { fill: #1a1a1a; }
      path { stroke: #eeeeee; }
    }
  </style>
  <rect width="32" height="32" rx="6"/>
  <path
    d="M 5.00 26.95 L 5.22 26.94 L 5.44 26.93 L 5.67 26.92 L 5.89 26.91 L 6.11 26.90 L 6.33 26.89 L 6.56 26.87 L 6.78 26.86 L 7.00 26.84 L 7.22 26.82 L 7.44 26.80 L 7.67 26.77 L 7.89 26.74 L 8.11 26.71 L 8.33 26.67 L 8.56 26.63 L 8.78 26.58 L 9.00 26.53 L 9.22 26.47 L 9.44 26.40 L 9.67 26.33 L 9.89 26.24 L 10.11 26.15 L 10.33 26.04 L 10.56 25.93 L 10.78 25.80 L 11.00 25.65 L 11.22 25.49 L 11.44 25.31 L 11.67 25.11 L 11.89 24.89 L 12.11 24.64 L 12.33 24.38 L 12.56 24.08 L 12.78 23.76 L 13.00 23.41 L 13.22 23.04 L 13.44 22.63 L 13.67 22.19 L 13.89 21.72 L 14.11 21.21 L 14.33 20.68 L 14.56 20.12 L 14.78 19.54 L 15.00 18.93 L 15.22 18.30 L 15.44 17.65 L 15.67 17.00 L 15.89 16.33 L 16.11 15.67 L 16.33 15.00 L 16.56 14.35 L 16.78 13.70 L 17.00 13.07 L 17.22 12.46 L 17.44 11.88 L 17.67 11.32 L 17.89 10.79 L 18.11 10.28 L 18.33 9.81 L 18.56 9.37 L 18.78 8.96 L 19.00 8.59 L 19.22 8.24 L 19.44 7.92 L 19.67 7.62 L 19.89 7.36 L 20.11 7.11 L 20.33 6.89 L 20.56 6.69 L 20.78 6.51 L 21.00 6.35 L 21.22 6.20 L 21.44 6.07 L 21.67 5.96 L 21.89 5.85 L 22.11 5.76 L 22.33 5.67 L 22.56 5.60 L 22.78 5.53 L 23.00 5.47 L 23.22 5.42 L 23.44 5.37 L 23.67 5.33 L 23.89 5.29 L 24.11 5.26 L 24.33 5.23 L 24.56 5.20 L 24.78 5.18 L 25.00 5.16 L 25.22 5.14 L 25.44 5.13 L 25.67 5.11 L 25.89 5.10 L 26.11 5.09 L 26.33 5.08 L 26.56 5.07 L 26.78 5.06 L 27.00 5.05"
    fill="none"
    stroke-width="2.5"
    stroke-linecap="round"
    stroke-linejoin="round"
  />
</svg>