<svg xmlns="http://www.w3.org/2000/svg" width="16" height="16" viewBox="0 0 16 16">
  <style>
    rect { fill: white; }
    path { stroke: #111; }
    @media (prefers-color-scheme: dark) {
      rect { fill: #1a1a1a; }
      path { stroke: #eeeeee; }
    }
  </style>
  <rect width="16" height="16" rx="3"/>
  <path
    d="M 2.00 13.97 L 2.12 13.97 L 2.24 13.96 L 2.36 13.96 L 2.48 13.95 L 2.61 13.95 L 2.73 13.94 L 2.85 13.93 L 2.97 13.92 L 3.09 13.91 L 3.21 13.90 L 3.33 13.89 L 3.45 13.87 L 3.58 13.86 L 3.70 13.84 L 3.82 13.82 L 3.94 13.80 L 4.06 13.77 L 4.18 13.74 L 4.30 13.71 L 4.42 13.67 L 4.55 13.63 L 4.67 13.59 L 4.79 13.54 L 4.91 13.48 L 5.03 13.41 L 5.15 13.34 L 5.27 13.26 L 5.39 13.18 L 5.52 13.08 L 5.64 12.97 L 5.76 12.85 L 5.88 12.72 L 6.00 12.57 L 6.12 12.41 L 6.24 12.23 L 6.36 12.04 L 6.48 11.84 L 6.61 11.61 L 6.73 11.37 L 6.85 11.12 L 6.97 10.84 L 7.09 10.55 L 7.21 10.25 L 7.33 9.93 L 7.45 9.60 L 7.58 9.25 L 7.70 8.90 L 7.82 8.54 L 7.94 8.18 L 8.06 7.82 L 8.18 7.46 L 8.30 7.10 L 8.42 6.75 L 8.55 6.40 L 8.67 6.07 L 8.79 5.75 L 8.91 5.45 L 9.03 5.16 L 9.15 4.88 L 9.27 4.63 L 9.39 4.39 L 9.52 4.16 L 9.64 3.96 L 9.76 3.77 L 9.88 3.59 L 10.00 3.43 L 10.12 3.28 L 10.24 3.15 L 10.36 3.03 L 10.48 2.92 L 10.61 2.82 L 10.73 2.74 L 10.85 2.66 L 10.97 2.59 L 11.09 2.52 L 11.21 2.46 L 11.33 2.41 L 11.45 2.37 L 11.58 2.33 L 11.70 2.29 L 11.82 2.26 L 11.94 2.23 L 12.06 2.20 L 12.18 2.18 L 12.30 2.16 L 12.42 2.14 L 12.55 2.13 L 12.67 2.11 L 12.79 2.10 L 12.91 2.09 L 13.03 2.08 L 13.15 2.07 L 13.27 2.06 L 13.39 2.05 L 13.52 2.05 L 13.64 2.04 L 13.76 2.04 L 13.88 2.03 L 14.00 2.03"
    fill="none"
    stroke-width="1.5"
    stroke-linecap="round"
    stroke-linejoin="round"
  />
</svg>